<svg width="44" height="68" viewBox="0 0 44 68" fill="none" xmlns="http://www.w3.org/2000/svg">
<path fill-rule="evenodd" clip-rule="evenodd" d="M17.3716 5.56985L27.219 21.8225C28.4788 23.9018 27.8039 26.6094 25.7155 27.854L5.11979 40.129L17.2532 60.1546L27.1503 62.6217L17.3029 46.369C16.0431 44.2897 16.718 41.5822 18.8064 40.3375L39.4021 28.0626L27.2687 8.03692L17.3716 5.56985ZM20.2995 44.5535C20.0475 44.1376 20.1825 43.5961 20.6002 43.3471L43.4696 29.7171C43.8873 29.4682 44.0222 28.9267 43.7703 28.5108L29.7041 5.29521C29.5843 5.09748 29.3912 4.95513 29.1668 4.8992L12.0317 0.627898C11.273 0.438781 10.6655 1.26298 11.0707 1.9317L24.2224 23.6381C24.4744 24.0539 24.3394 24.5954 23.9217 24.8444L1.05233 38.4744C0.634646 38.7234 0.499663 39.2649 0.751631 39.6807L14.8178 62.8963C14.9376 63.0941 15.1307 63.2364 15.3551 63.2923L32.4902 67.5636C33.2489 67.7527 33.8564 66.9286 33.4512 66.2598L20.2995 44.5535Z" fill="#FFED00"/>
</svg>
